<?xml version="1.0" encoding="UTF-8" standalone="no"?>
<!DOCTYPE svg PUBLIC "-//W3C//DTD SVG 1.1//EN" "http://www.w3.org/Graphics/SVG/1.1/DTD/svg11.dtd">
<svg width="100%" height="100%" viewBox="0 0 512 512" version="1.1" xmlns="http://www.w3.org/2000/svg" xmlns:xlink="http://www.w3.org/1999/xlink" xml:space="preserve" xmlns:serif="http://www.serif.com/" style="fill-rule:evenodd;clip-rule:evenodd;stroke-linejoin:round;stroke-miterlimit:2;">
    <g transform="matrix(4.16667,0,0,4.16667,49.5592,0)">
        <path d="M64.64,13L86.77,36.21L64.64,36.21L64.64,13ZM42.58,71.67C41.963,72.384 41.064,72.796 40.12,72.796C38.337,72.796 36.869,71.328 36.869,69.545C36.869,68.765 37.15,68.01 37.66,67.42L47.08,56.51C48.25,55.164 50.319,55.015 51.67,56.18C51.811,56.309 51.944,56.446 52.07,56.59L61.37,66.87C61.909,67.466 62.208,68.241 62.208,69.045C62.208,70.824 60.744,72.288 58.965,72.288C58.049,72.288 57.174,71.899 56.56,71.22L52.8,67.07L52.8,82.52C52.8,84.308 51.328,85.78 49.54,85.78C47.752,85.78 46.28,84.308 46.28,82.52L46.28,67.38L42.58,71.67ZM24.22,85.42C24.22,83.632 25.692,82.16 27.48,82.16C29.268,82.16 30.74,83.632 30.74,85.42L30.74,92.88L68.36,92.88L68.36,85.42C68.357,85.36 68.355,85.3 68.355,85.24C68.355,83.451 69.827,81.98 71.615,81.98C73.403,81.98 74.875,83.451 74.875,85.24C74.875,85.3 74.873,85.36 74.87,85.42L74.87,96.14C74.87,97.928 73.398,99.4 71.61,99.4L27.48,99.4C25.692,99.4 24.22,97.928 24.22,96.14L24.22,85.42ZM99.08,39.19C99.23,38.62 97.9,37.12 96.4,35.63L63.8,1.36C63.119,0.51 62.09,0.01 61,0L6.62,0C2.988,0 -0,2.988 0,6.62L0,116.26C-0,119.892 2.988,122.88 6.62,122.88L92.46,122.88C96.092,122.88 99.08,119.892 99.08,116.26L99.08,39.19ZM91.68,43.61L91.68,115.48L7.4,115.48L7.4,7.37L57.25,7.37C57.25,7.37 57.25,39.9 57.25,39.9C57.25,41.935 58.925,43.61 60.96,43.61C60.973,43.61 60.987,43.61 61,43.61L91.68,43.61Z" style="fill:rgb(255,204,0);fill-rule:nonzero;"/>
    </g>
</svg>